<svg xmlns="http://www.w3.org/2000/svg" aria-hidden="true" style="position:absolute;width:0;height:0;overflow:hidden"><defs><symbol id="icon-bell" viewBox="0 0 32 32"><path d="M24 20v-5.449a7.884 7.884 0 0 0-5.825-7.605l-.055-.013a2.667 2.667 0 1 0-4.236.006l-.005-.006c-3.409.916-5.878 3.978-5.88 7.617V20a4 4 0 0 1-4 4v1.333h24V24a4 4 0 0 1-4-4zM16 4a1.333 1.333 0 1 1-1.333 1.333A1.334 1.334 0 0 1 16 4zM7.524 24a5.312 5.312 0 0 0 1.809-3.998v-5.451A6.56 6.56 0 0 1 15.883 8h.232a6.56 6.56 0 0 1 6.551 6.55v5.452a5.31 5.31 0 0 0 1.804 3.993l.006.005zm9.809 2.667h1.333a2.667 2.667 0 1 1-5.334 0h1.333a1.333 1.333 0 0 0 2.666 0z"/></symbol><symbol id="icon-copy" viewBox="0 0 20 20"><path d="M6 6V2c0-1.1.9-2 2-2h10a2 2 0 0 1 2 2v10a2 2 0 0 1-2 2h-4v4a2 2 0 0 1-2 2H2a2 2 0 0 1-2-2V8c0-1.1.9-2 2-2h4zm2 0h4a2 2 0 0 1 2 2v4h4V2H8v4zM2 8v10h10V8H2z"/></symbol><symbol id="icon-heart" viewBox="0 0 37 32"><path d="M27 0a9.97 9.97 0 0 0-6.704 2.595A9.97 9.97 0 0 0 18.5 4.749a10 10 0 0 0-1.796-2.155A9.974 9.974 0 0 0 10 0C4.486 0 0 4.486 0 10c0 3.722 1.158 6.66 3.871 9.825 3.942 4.6 13.919 11.62 14.342 11.917a.496.496 0 0 0 .574 0c.423-.297 10.4-7.317 14.343-11.917C35.842 16.66 37 13.722 37 10c0-5.514-4.486-10-10-10zm5.371 19.175C28.876 23.251 20.191 29.516 18.5 30.72c-1.691-1.204-10.376-7.469-13.87-11.545C2.085 16.206 1 13.462 1 10c0-4.963 4.038-9 9-9 2.227 0 4.37.829 6.032 2.335a9 9 0 0 1 2.02 2.664c.17.34.726.34.896 0a8.984 8.984 0 0 1 2.02-2.663A8.968 8.968 0 0 1 27 1c4.962 0 9 4.037 9 9 0 3.462-1.085 6.206-3.629 9.175z"/></symbol><symbol id="icon-eye-hidden" viewBox="0 0 32 32"><path d="M8.109 20.891C4.617 18.83 3 16 3 16s4-7 13-7c1.305 0 2.504.147 3.601.399l-.85.85a15.115 15.115 0 0 0-2.752-.248c-8 0-11.8 6-11.8 6s1.515 2.392 4.645 4.155l-.736.736zm4.29 1.71c1.097.252 2.297.399 3.601.399 9 0 13-7 13-7s-1.617-2.83-5.109-4.891l-.736.736C26.285 13.608 27.8 16 27.8 16S24 22 16 22c-.98 0-1.897-.09-2.752-.248l-.85.85zm7.5-7.5a4 4 0 0 1-4.798 4.798L16 19c.768 0 1.536-.293 2.121-.879S19 16.767 19 16l.899-.899zm-3-3a4 4 0 0 0-4.798 4.798L13 16c0-.768.293-1.536.879-2.121S15.233 13 16 13l.899-.899zM24 7 7 24l1 1L25 8l-1-1z"/></symbol><symbol id="icon-eye" viewBox="0 0 32 32"><path d="M16 9c9 0 13 7 13 7s-4 7-13 7-13-7-13-7 4-7 13-7zm0 1c-8 0-11.8 6-11.8 6S8 22 16 22s11.8-6 11.8-6S24 10 16 10zm0 10a4 4 0 1 1 0-8 4 4 0 0 1 0 8zm0-1a3 3 0 1 0 0-6 3 3 0 0 0 0 6zm0-2a1 1 0 1 0 0-2 1 1 0 0 0 0 2z"/></symbol><symbol id="icon-document-text" viewBox="0 0 32 32"><path d="M19.5 3h.5l6 7v18.009A1.998 1.998 0 0 1 24.003 30H8.998a2 2 0 0 1-1.997-2.007V5.008c0-1.109.897-2.007 2.003-2.007h10.497zM19 4H8.996C8.446 4 8 4.455 8 4.995v23.009c0 .55.455.995 1 .995h15c.552 0 1-.445 1-.993V10.999h-4.002A1.995 1.995 0 0 1 19 8.993V3.999zm1 .5v4.491c0 .557.451 1.009.997 1.009H24.7L20 4.5zM10 6v2h1V7h1v4h1V7h1v1h1V6h-5zm0 10v1h13v-1H10zm0-3v1h13v-1H10zm0 6v1h13v-1H10zm0 3v1h13v-1H10zm0 3v1h13v-1H10z"/></symbol><symbol id="icon-settings" viewBox="0 0 24 24"><path d="M12 15.516q1.453 0 2.484-1.031t1.031-2.484-1.031-2.484T12 8.486 9.516 9.517t-1.031 2.484 1.031 2.484T12 15.516zm7.453-2.532 2.109 1.641q.328.234.094.656L19.64 18.75q-.188.328-.609.188l-2.484-.984q-.984.703-1.688.984l-.375 2.625q-.094.422-.469.422H9.984q-.375 0-.469-.422l-.375-2.625q-.891-.375-1.688-.984l-2.484.984q-.422.141-.609-.188l-2.016-3.469q-.234-.422.094-.656l2.109-1.641q-.047-.328-.047-.984t.047-.984L2.437 9.375q-.328-.234-.094-.656L4.359 5.25q.188-.328.609-.188l2.484.984q.984-.703 1.688-.984l.375-2.625q.094-.422.469-.422h4.031q.375 0 .469.422l.375 2.625q.891.375 1.688.984l2.484-.984q.422-.141.609.188l2.016 3.469q.234.422-.094.656l-2.109 1.641q.047.328.047.984t-.047.984z"/></symbol><symbol id="icon-add" viewBox="0 0 24 24"><path d="M18.984 12.984h-6v6h-1.969v-6h-6v-1.969h6v-6h1.969v6h6v1.969z"/></symbol><symbol id="icon-minus" viewBox="0 0 24 24"><path d="M5 13h14a1 1 0 0 0 0-2H5a1 1 0 0 0 0 2z"/></symbol><symbol id="icon-chevrons-left" viewBox="0 0 24 24"><path d="M11.707 16.293 7.414 12l4.293-4.293a.999.999 0 1 0-1.414-1.414l-5 5a.999.999 0 0 0 0 1.414l5 5a.999.999 0 1 0 1.414-1.414zm7 0L14.414 12l4.293-4.293a.999.999 0 1 0-1.414-1.414l-5 5a.999.999 0 0 0 0 1.414l5 5a.999.999 0 1 0 1.414-1.414z"/></symbol><symbol id="icon-globe" viewBox="0 0 24 28"><path d="M12 2c6.625 0 12 5.375 12 12s-5.375 12-12 12S0 20.625 0 14 5.375 2 12 2zm4.281 8.141c-.125.094-.203.266-.359.297.078-.016.156-.297.203-.359.094-.109.219-.172.344-.234.266-.109.531-.141.812-.187.266-.063.594-.063.797.172-.047-.047.328-.375.375-.391.141-.078.375-.047.469-.187.031-.047.031-.344.031-.344-.266.031-.359-.219-.375-.438 0 .016-.031.063-.094.125.016-.234-.281-.063-.391-.094-.359-.094-.313-.344-.422-.609-.063-.141-.234-.187-.297-.328-.063-.094-.094-.297-.234-.313-.094-.016-.266.328-.297.313-.141-.078-.203.031-.313.094-.094.063-.172.031-.266.078.281-.094-.125-.25-.266-.219.219-.063.109-.297-.016-.406h.078c-.031-.141-.469-.266-.609-.359s-.891-.25-1.047-.156c-.187.109.047.422.047.578.016.187-.187.234-.187.391 0 .266.5.219.375.578-.078.219-.375.266-.5.438-.125.156.016.438.141.547.125.094-.219.25-.266.281-.266.125-.469-.266-.531-.5-.047-.172-.063-.375-.25-.469-.094-.031-.391-.078-.453.016-.094-.234-.422-.328-.641-.406-.313-.109-.578-.109-.906-.063.109-.016-.031-.5-.297-.422.078-.156.047-.328.078-.484a.887.887 0 0 1 .187-.359c.031-.063.375-.422.266-.438.266.031.562.047.781-.172.141-.141.203-.375.344-.531.203-.234.453.063.672.078.313.016.297-.328.125-.484.203.016.031-.359-.078-.406-.141-.047-.672.094-.391.203-.063-.031-.438.75-.656.359-.063-.078-.094-.406-.234-.422-.125 0-.203.141-.25.234.078-.203-.438-.344-.547-.359.234-.156.047-.328-.125-.422-.125-.078-.516-.141-.625-.016-.297.359.313.406.469.5.047.031.234.141.125.219-.094.047-.375.125-.406.187-.094.141.109.297-.031.438-.141-.141-.141-.375-.25-.531.141.172-.562.078-.547.078-.234 0-.609.156-.781-.078-.031-.063-.031-.422.063-.344-.141-.109-.234-.219-.328-.281a9.5 9.5 0 0 0-1.469.641.26.26 0 0 0 .187-.016c.125-.047.234-.125.359-.187.156-.063.484-.25.656-.109.016-.031.063-.063.078-.078.109.125.219.25.313.391-.125-.063-.328-.031-.469-.016-.109.031-.297.063-.344.187.047.078.109.203.078.281-.203-.141-.359-.375-.641-.406-.125 0-.25 0-.344.016a10.15 10.15 0 0 0-3.672 3.469.442.442 0 0 0 .187.125c.156.047 0 .5.297.266.094.078.109.187.047.297.016-.016.641.391.688.422.109.094.281.203.328.328.031.109-.063.234-.156.281-.016-.031-.25-.266-.281-.203-.047.078 0 .5.172.484-.25.016-.141.984-.203 1.172 0 .016.031.016.031.016-.047.187.109.922.422.844-.203.047.359.766.438.812.203.141.438.234.578.438.156.219.156.547.375.719-.063.187.328.406.313.672-.031.016-.047.016-.078.031.078.219.375.219.484.422.063.125 0 .422.203.359.031-.344-.203-.688-.375-.969-.094-.156-.187-.297-.266-.453-.078-.141-.094-.313-.156-.469.063.016.406.141.375.187-.125.313.5.859.672 1.062.047.047.406.516.219.516.203 0 .484.313.578.469.141.234.109.531.203.781.094.313.531.453.781.594.219.109.406.266.625.344.328.125.406.016.688-.031.406-.063.453.391.781.562.203.109.641.266.859.172-.094.031.328.672.359.719.141.187.406.281.562.469a.244.244 0 0 0 .109-.141c-.063.172.234.5.391.469.172-.031.219-.375.219-.5-.313.156-.594.031-.766-.281-.031-.078-.281-.516-.063-.516.297 0 .094-.234.063-.453s-.25-.359-.359-.547c-.094.187-.406.141-.5-.016 0 .047-.047.125-.047.187-.078 0-.156.016-.234-.016.031-.187.047-.422.094-.625.078-.281.594-.828-.078-.797-.234.016-.328.109-.406.313-.078.187-.047.359-.266.453-.141.063-.609.031-.75-.047-.297-.172-.5-.719-.5-1.031-.016-.422.203-.797 0-1.188.094-.078.187-.234.297-.313.094-.063.203.047.25-.141-.047-.031-.109-.094-.125-.094.234.109.672-.156.875 0 .125.094.266.125.344-.031.016-.047-.109-.234-.047-.359.047.266.219.313.453.141.094.094.344.063.516.156.172.109.203.281.406.047.125.187.141.187.187.375.047.172.141.609.297.688.328.203.25-.344.219-.531-.016-.016-.016-.531-.031-.531-.5-.109-.313-.5-.031-.766.047-.031.406-.156.562-.281.141-.125.313-.344.234-.547.078 0 .141-.063.172-.141-.047-.016-.234-.172-.266-.156.109-.063.094-.156.031-.25.156-.094.078-.266.234-.328.172.234.516-.031.344-.219.156-.219.516-.109.609-.313.234.063.063-.234.187-.406.109-.141.297-.141.438-.219 0 .016.391-.219.266-.234.266.031.797-.25.391-.484.063-.141-.141-.203-.281-.234.109-.031.25.031.344-.031.203-.141.063-.203-.109-.25-.219-.063-.5.078-.672.187zm-2.547 13.703a9.912 9.912 0 0 0 5.484-2.953c-.094-.094-.266-.063-.391-.125-.125-.047-.219-.094-.375-.125.031-.313-.313-.422-.531-.578-.203-.156-.328-.328-.625-.266-.031.016-.344.125-.281.187-.203-.172-.297-.266-.562-.344-.25-.078-.422-.391-.672-.109-.125.125-.063.313-.125.438-.203-.172.187-.375.031-.562-.187-.219-.516.141-.672.234-.094.078-.203.109-.266.203-.078.109-.109.25-.172.359-.047-.125-.313-.094-.328-.187.063.375.063.766.141 1.141.047.219 0 .578-.187.75s-.422.359-.453.625c-.031.187.016.359.187.406.016.234-.25.406-.234.656 0 .016.016.172.031.25z"/></symbol><symbol id="icon-heart1" viewBox="0 0 32 32"><path d="M23.6 2c-3.363 0-6.258 2.736-7.599 5.594C14.659 4.736 11.764 2 8.4 2 3.763 2 0 5.764 0 10.401c0 9.433 9.516 11.906 16.001 21.232C22.131 22.365 32 19.533 32 10.401 32 5.764 28.237 2 23.6 2z"/></symbol><symbol id="icon-search" viewBox="0 0 16 16"><path d="M15.56 15.56a1.502 1.502 0 0 1-2.125 0l-2.652-2.652a6.96 6.96 0 0 1-3.771 1.116 7.012 7.012 0 1 1 7.012-7.012c0 1.391-.417 2.68-1.116 3.771l2.652 2.652a1.502 1.502 0 0 1 0 2.125zM7.012 2.003a5.009 5.009 0 1 0 0 10.018 5.009 5.009 0 0 0 0-10.018z" fill="#ffffff"/></symbol><symbol id="icon-paper-plane" viewBox="0 0 20 20"><path d="M18.64 2.634.984 8.856c-.284.1-.347.345-.01.479l3.796 1.521 2.25.901 10.984-8.066c.148-.108.318.095.211.211l-7.871 8.513v.002l-.452.503.599.322 4.982 2.682c.291.156.668.027.752-.334l2.906-12.525c.079-.343-.148-.552-.491-.431zM7 17.162c0 .246.139.315.331.141.251-.229 2.85-2.561 2.85-2.561L7 13.098v4.064z" fill="#ffffff"/></symbol><symbol id="icon-chat" viewBox="0 0 28 28">
<path d="M11 6c-4.875 0-9 2.75-9 6 0 1.719 1.156 3.375 3.156 4.531l1.516 0.875-0.547 1.313c0.328-0.187 0.656-0.391 0.969-0.609l0.688-0.484 0.828 0.156c0.781 0.141 1.578 0.219 2.391 0.219 4.875 0 9-2.75 9-6s-4.125-6-9-6zM11 4c6.078 0 11 3.578 11 8s-4.922 8-11 8c-0.953 0-1.875-0.094-2.75-0.25-1.297 0.922-2.766 1.594-4.344 2-0.422 0.109-0.875 0.187-1.344 0.25h-0.047c-0.234 0-0.453-0.187-0.5-0.453v0c-0.063-0.297 0.141-0.484 0.313-0.688 0.609-0.688 1.297-1.297 1.828-2.594-2.531-1.469-4.156-3.734-4.156-6.266 0-4.422 4.922-8 11-8zM23.844 22.266c0.531 1.297 1.219 1.906 1.828 2.594 0.172 0.203 0.375 0.391 0.313 0.688v0c-0.063 0.281-0.297 0.484-0.547 0.453-0.469-0.063-0.922-0.141-1.344-0.25-1.578-0.406-3.047-1.078-4.344-2-0.875 0.156-1.797 0.25-2.75 0.25-2.828 0-5.422-0.781-7.375-2.063 0.453 0.031 0.922 0.063 1.375 0.063 3.359 0 6.531-0.969 8.953-2.719 2.609-1.906 4.047-4.484 4.047-7.281 0-0.812-0.125-1.609-0.359-2.375 2.641 1.453 4.359 3.766 4.359 6.375 0 2.547-1.625 4.797-4.156 6.266z" fill='#ffffff'></path>
</symbol><symbol id="icon-checkmark-send" viewBox="0 0 32 32">
<path fill="#ffffff" d="M7.371 13.773c-0.144 0.123-0.234 0.305-0.234 0.508 0 0.165 0.060 0.316 0.159 0.433l-0.001-0.001 9.443 11.085c0.123 0.143 0.305 0.234 0.508 0.235h0.021c0.209-0.007 0.393-0.109 0.511-0.264l0.001-0.002 14.087-18.735c0.089-0.112 0.142-0.255 0.142-0.411 0-0.368-0.298-0.667-0.667-0.667-0.222 0-0.418 0.108-0.539 0.275l-0.001 0.002-13.587 18.069-8.903-10.452c-0.123-0.144-0.305-0.235-0.508-0.235-0.165 0-0.316 0.060-0.433 0.16l0.001-0.001z"></path>
<path fill="#ffffff" d="M16.037 18.593l8.692-11.56c0.089-0.112 0.142-0.255 0.142-0.411 0-0.368-0.298-0.667-0.667-0.667-0.222 0-0.418 0.108-0.539 0.275l-0.001 0.002-8.692 11.56c-0.089 0.112-0.142 0.255-0.142 0.411 0 0.368 0.298 0.667 0.667 0.667 0.222 0 0.418-0.108 0.539-0.275l0.001-0.002zM0.235 13.773c-0.144 0.123-0.234 0.305-0.234 0.508 0 0.165 0.060 0.316 0.159 0.433l-0.001-0.001 9.443 11.085c0.123 0.143 0.305 0.234 0.508 0.235h0.021c0.209-0.007 0.393-0.109 0.511-0.264l0.001-0.002 1.289-1.713c0.089-0.112 0.142-0.255 0.142-0.411 0-0.368-0.298-0.667-0.667-0.667-0.222 0-0.418 0.108-0.539 0.275l-0.001 0.002-0.789 1.048-8.903-10.452c-0.123-0.144-0.305-0.235-0.508-0.235-0.165 0-0.316 0.060-0.433 0.16l0.001-0.001z"></path>
</symbol>
<symbol id="icon-checkmark-read" viewBox="0 0 32 32">
<path fill="#f97316" d="M7.371 13.773c-0.144 0.123-0.234 0.305-0.234 0.508 0 0.165 0.060 0.316 0.159 0.433l-0.001-0.001 9.443 11.085c0.123 0.143 0.305 0.234 0.508 0.235h0.021c0.209-0.007 0.393-0.109 0.511-0.264l0.001-0.002 14.087-18.735c0.089-0.112 0.142-0.255 0.142-0.411 0-0.368-0.298-0.667-0.667-0.667-0.222 0-0.418 0.108-0.539 0.275l-0.001 0.002-13.587 18.069-8.903-10.452c-0.123-0.144-0.305-0.235-0.508-0.235-0.165 0-0.316 0.060-0.433 0.16l0.001-0.001z"></path>
<path fill="#f97316" d="M16.037 18.593l8.692-11.56c0.089-0.112 0.142-0.255 0.142-0.411 0-0.368-0.298-0.667-0.667-0.667-0.222 0-0.418 0.108-0.539 0.275l-0.001 0.002-8.692 11.56c-0.089 0.112-0.142 0.255-0.142 0.411 0 0.368 0.298 0.667 0.667 0.667 0.222 0 0.418-0.108 0.539-0.275l0.001-0.002zM0.235 13.773c-0.144 0.123-0.234 0.305-0.234 0.508 0 0.165 0.060 0.316 0.159 0.433l-0.001-0.001 9.443 11.085c0.123 0.143 0.305 0.234 0.508 0.235h0.021c0.209-0.007 0.393-0.109 0.511-0.264l0.001-0.002 1.289-1.713c0.089-0.112 0.142-0.255 0.142-0.411 0-0.368-0.298-0.667-0.667-0.667-0.222 0-0.418 0.108-0.539 0.275l-0.001 0.002-0.789 1.048-8.903-10.452c-0.123-0.144-0.305-0.235-0.508-0.235-0.165 0-0.316 0.060-0.433 0.16l0.001-0.001z"></path>
</symbol>
</defs></svg>