<svg xmlns="http://www.w3.org/2000/svg" aria-hidden="true" style="position:absolute;width:0;height:0;overflow:hidden"><defs><symbol id="icon-bell" viewBox="0 0 32 32"><path d="M24 20v-5.449a7.884 7.884 0 0 0-5.825-7.605l-.055-.013a2.667 2.667 0 1 0-4.236.006l-.005-.006c-3.409.916-5.878 3.978-5.88 7.617V20a4 4 0 0 1-4 4v1.333h24V24a4 4 0 0 1-4-4zM16 4a1.333 1.333 0 1 1-1.333 1.333A1.334 1.334 0 0 1 16 4zM7.524 24a5.312 5.312 0 0 0 1.809-3.998v-5.451A6.56 6.56 0 0 1 15.883 8h.232a6.56 6.56 0 0 1 6.551 6.55v5.452a5.31 5.31 0 0 0 1.804 3.993l.006.005zm9.809 2.667h1.333a2.667 2.667 0 1 1-5.334 0h1.333a1.333 1.333 0 0 0 2.666 0z"/></symbol><symbol id="icon-copy" viewBox="0 0 20 20"><path d="M6 6V2c0-1.1.9-2 2-2h10a2 2 0 0 1 2 2v10a2 2 0 0 1-2 2h-4v4a2 2 0 0 1-2 2H2a2 2 0 0 1-2-2V8c0-1.1.9-2 2-2h4zm2 0h4a2 2 0 0 1 2 2v4h4V2H8v4zM2 8v10h10V8H2z"/></symbol><symbol id="icon-heart" viewBox="0 0 37 32"><path d="M27 0a9.97 9.97 0 0 0-6.704 2.595A9.97 9.97 0 0 0 18.5 4.749a10 10 0 0 0-1.796-2.155A9.974 9.974 0 0 0 10 0C4.486 0 0 4.486 0 10c0 3.722 1.158 6.66 3.871 9.825 3.942 4.6 13.919 11.62 14.342 11.917a.496.496 0 0 0 .574 0c.423-.297 10.4-7.317 14.343-11.917C35.842 16.66 37 13.722 37 10c0-5.514-4.486-10-10-10zm5.371 19.175C28.876 23.251 20.191 29.516 18.5 30.72c-1.691-1.204-10.376-7.469-13.87-11.545C2.085 16.206 1 13.462 1 10c0-4.963 4.038-9 9-9 2.227 0 4.37.829 6.032 2.335a9 9 0 0 1 2.02 2.664c.17.34.726.34.896 0a8.984 8.984 0 0 1 2.02-2.663A8.968 8.968 0 0 1 27 1c4.962 0 9 4.037 9 9 0 3.462-1.085 6.206-3.629 9.175z"/></symbol><symbol id="icon-eye-hidden" viewBox="0 0 32 32"><path d="M8.109 20.891C4.617 18.83 3 16 3 16s4-7 13-7c1.305 0 2.504.147 3.601.399l-.85.85a15.115 15.115 0 0 0-2.752-.248c-8 0-11.8 6-11.8 6s1.515 2.392 4.645 4.155l-.736.736zm4.29 1.71c1.097.252 2.297.399 3.601.399 9 0 13-7 13-7s-1.617-2.83-5.109-4.891l-.736.736C26.285 13.608 27.8 16 27.8 16S24 22 16 22c-.98 0-1.897-.09-2.752-.248l-.85.85zm7.5-7.5a4 4 0 0 1-4.798 4.798L16 19c.768 0 1.536-.293 2.121-.879S19 16.767 19 16l.899-.899zm-3-3a4 4 0 0 0-4.798 4.798L13 16c0-.768.293-1.536.879-2.121S15.233 13 16 13l.899-.899zM24 7 7 24l1 1L25 8l-1-1z"/></symbol><symbol id="icon-eye" viewBox="0 0 32 32"><path d="M16 9c9 0 13 7 13 7s-4 7-13 7-13-7-13-7 4-7 13-7zm0 1c-8 0-11.8 6-11.8 6S8 22 16 22s11.8-6 11.8-6S24 10 16 10zm0 10a4 4 0 1 1 0-8 4 4 0 0 1 0 8zm0-1a3 3 0 1 0 0-6 3 3 0 0 0 0 6zm0-2a1 1 0 1 0 0-2 1 1 0 0 0 0 2z"/></symbol><symbol id="icon-document-text" viewBox="0 0 32 32"><path d="M19.5 3h.5l6 7v18.009A1.998 1.998 0 0 1 24.003 30H8.998a2 2 0 0 1-1.997-2.007V5.008c0-1.109.897-2.007 2.003-2.007h10.497zM19 4H8.996C8.446 4 8 4.455 8 4.995v23.009c0 .55.455.995 1 .995h15c.552 0 1-.445 1-.993V10.999h-4.002A1.995 1.995 0 0 1 19 8.993V3.999zm1 .5v4.491c0 .557.451 1.009.997 1.009H24.7L20 4.5zM10 6v2h1V7h1v4h1V7h1v1h1V6h-5zm0 10v1h13v-1H10zm0-3v1h13v-1H10zm0 6v1h13v-1H10zm0 3v1h13v-1H10zm0 3v1h13v-1H10z"/></symbol><symbol id="icon-settings" viewBox="0 0 24 24"><path d="M12 15.516q1.453 0 2.484-1.031t1.031-2.484-1.031-2.484T12 8.486 9.516 9.517t-1.031 2.484 1.031 2.484T12 15.516zm7.453-2.532 2.109 1.641q.328.234.094.656L19.64 18.75q-.188.328-.609.188l-2.484-.984q-.984.703-1.688.984l-.375 2.625q-.094.422-.469.422H9.984q-.375 0-.469-.422l-.375-2.625q-.891-.375-1.688-.984l-2.484.984q-.422.141-.609-.188l-2.016-3.469q-.234-.422.094-.656l2.109-1.641q-.047-.328-.047-.984t.047-.984L2.437 9.375q-.328-.234-.094-.656L4.359 5.25q.188-.328.609-.188l2.484.984q.984-.703 1.688-.984l.375-2.625q.094-.422.469-.422h4.031q.375 0 .469.422l.375 2.625q.891.375 1.688.984l2.484-.984q.422-.141.609.188l2.016 3.469q.234.422-.094.656l-2.109 1.641q.047.328.047.984t-.047.984z"/></symbol><symbol id="icon-add" viewBox="0 0 24 24"><path d="M18.984 12.984h-6v6h-1.969v-6h-6v-1.969h6v-6h1.969v6h6v1.969z"/></symbol><symbol id="icon-minus" viewBox="0 0 24 24"><path d="M5 13h14a1 1 0 0 0 0-2H5a1 1 0 0 0 0 2z"/></symbol><symbol id="icon-chevrons-left" viewBox="0 0 24 24"><path fill="#ffffff" d="M11.707 16.293 7.414 12l4.293-4.293a.999.999 0 1 0-1.414-1.414l-5 5a.999.999 0 0 0 0 1.414l5 5a.999.999 0 1 0 1.414-1.414zm7 0L14.414 12l4.293-4.293a.999.999 0 1 0-1.414-1.414l-5 5a.999.999 0 0 0 0 1.414l5 5a.999.999 0 1 0 1.414-1.414z"/></symbol><symbol id="icon-heart1" viewBox="0 0 32 32"><path d="M23.6 2c-3.363 0-6.258 2.736-7.599 5.594C14.659 4.736 11.764 2 8.4 2 3.763 2 0 5.764 0 10.401c0 9.433 9.516 11.906 16.001 21.232C22.131 22.365 32 19.533 32 10.401 32 5.764 28.237 2 23.6 2z"/></symbol><symbol id="icon-search" viewBox="0 0 16 16"><path d="M15.56 15.56a1.502 1.502 0 0 1-2.125 0l-2.652-2.652a6.96 6.96 0 0 1-3.771 1.116 7.012 7.012 0 1 1 7.012-7.012c0 1.391-.417 2.68-1.116 3.771l2.652 2.652a1.502 1.502 0 0 1 0 2.125zM7.012 2.003a5.009 5.009 0 1 0 0 10.018 5.009 5.009 0 0 0 0-10.018z" fill="#ffffff"/></symbol><symbol id="icon-paper-plane" viewBox="0 0 20 20"><path d="M18.64 2.634.984 8.856c-.284.1-.347.345-.01.479l3.796 1.521 2.25.901 10.984-8.066c.148-.108.318.095.211.211l-7.871 8.513v.002l-.452.503.599.322 4.982 2.682c.291.156.668.027.752-.334l2.906-12.525c.079-.343-.148-.552-.491-.431zM7 17.162c0 .246.139.315.331.141.251-.229 2.85-2.561 2.85-2.561L7 13.098v4.064z" fill="#ffffff"/></symbol><symbol id="icon-chat" viewBox="0 0 28 28">
<path d="M11 6c-4.875 0-9 2.75-9 6 0 1.719 1.156 3.375 3.156 4.531l1.516 0.875-0.547 1.313c0.328-0.187 0.656-0.391 0.969-0.609l0.688-0.484 0.828 0.156c0.781 0.141 1.578 0.219 2.391 0.219 4.875 0 9-2.75 9-6s-4.125-6-9-6zM11 4c6.078 0 11 3.578 11 8s-4.922 8-11 8c-0.953 0-1.875-0.094-2.75-0.25-1.297 0.922-2.766 1.594-4.344 2-0.422 0.109-0.875 0.187-1.344 0.25h-0.047c-0.234 0-0.453-0.187-0.5-0.453v0c-0.063-0.297 0.141-0.484 0.313-0.688 0.609-0.688 1.297-1.297 1.828-2.594-2.531-1.469-4.156-3.734-4.156-6.266 0-4.422 4.922-8 11-8zM23.844 22.266c0.531 1.297 1.219 1.906 1.828 2.594 0.172 0.203 0.375 0.391 0.313 0.688v0c-0.063 0.281-0.297 0.484-0.547 0.453-0.469-0.063-0.922-0.141-1.344-0.25-1.578-0.406-3.047-1.078-4.344-2-0.875 0.156-1.797 0.25-2.75 0.25-2.828 0-5.422-0.781-7.375-2.063 0.453 0.031 0.922 0.063 1.375 0.063 3.359 0 6.531-0.969 8.953-2.719 2.609-1.906 4.047-4.484 4.047-7.281 0-0.812-0.125-1.609-0.359-2.375 2.641 1.453 4.359 3.766 4.359 6.375 0 2.547-1.625 4.797-4.156 6.266z" fill='#ffffff'></path>
</symbol><symbol id="icon-checkmark-send" viewBox="0 0 32 32">
<path fill="#ffffff" d="M7.371 13.773c-0.144 0.123-0.234 0.305-0.234 0.508 0 0.165 0.060 0.316 0.159 0.433l-0.001-0.001 9.443 11.085c0.123 0.143 0.305 0.234 0.508 0.235h0.021c0.209-0.007 0.393-0.109 0.511-0.264l0.001-0.002 14.087-18.735c0.089-0.112 0.142-0.255 0.142-0.411 0-0.368-0.298-0.667-0.667-0.667-0.222 0-0.418 0.108-0.539 0.275l-0.001 0.002-13.587 18.069-8.903-10.452c-0.123-0.144-0.305-0.235-0.508-0.235-0.165 0-0.316 0.060-0.433 0.16l0.001-0.001z"></path>
<path fill="#ffffff" d="M16.037 18.593l8.692-11.56c0.089-0.112 0.142-0.255 0.142-0.411 0-0.368-0.298-0.667-0.667-0.667-0.222 0-0.418 0.108-0.539 0.275l-0.001 0.002-8.692 11.56c-0.089 0.112-0.142 0.255-0.142 0.411 0 0.368 0.298 0.667 0.667 0.667 0.222 0 0.418-0.108 0.539-0.275l0.001-0.002zM0.235 13.773c-0.144 0.123-0.234 0.305-0.234 0.508 0 0.165 0.060 0.316 0.159 0.433l-0.001-0.001 9.443 11.085c0.123 0.143 0.305 0.234 0.508 0.235h0.021c0.209-0.007 0.393-0.109 0.511-0.264l0.001-0.002 1.289-1.713c0.089-0.112 0.142-0.255 0.142-0.411 0-0.368-0.298-0.667-0.667-0.667-0.222 0-0.418 0.108-0.539 0.275l-0.001 0.002-0.789 1.048-8.903-10.452c-0.123-0.144-0.305-0.235-0.508-0.235-0.165 0-0.316 0.060-0.433 0.16l0.001-0.001z"></path>
</symbol>
<symbol id="icon-checkmark-read" viewBox="0 0 32 32">
<path fill="#f97316" d="M7.371 13.773c-0.144 0.123-0.234 0.305-0.234 0.508 0 0.165 0.060 0.316 0.159 0.433l-0.001-0.001 9.443 11.085c0.123 0.143 0.305 0.234 0.508 0.235h0.021c0.209-0.007 0.393-0.109 0.511-0.264l0.001-0.002 14.087-18.735c0.089-0.112 0.142-0.255 0.142-0.411 0-0.368-0.298-0.667-0.667-0.667-0.222 0-0.418 0.108-0.539 0.275l-0.001 0.002-13.587 18.069-8.903-10.452c-0.123-0.144-0.305-0.235-0.508-0.235-0.165 0-0.316 0.060-0.433 0.16l0.001-0.001z"></path>
<path fill="#f97316" d="M16.037 18.593l8.692-11.56c0.089-0.112 0.142-0.255 0.142-0.411 0-0.368-0.298-0.667-0.667-0.667-0.222 0-0.418 0.108-0.539 0.275l-0.001 0.002-8.692 11.56c-0.089 0.112-0.142 0.255-0.142 0.411 0 0.368 0.298 0.667 0.667 0.667 0.222 0 0.418-0.108 0.539-0.275l0.001-0.002zM0.235 13.773c-0.144 0.123-0.234 0.305-0.234 0.508 0 0.165 0.060 0.316 0.159 0.433l-0.001-0.001 9.443 11.085c0.123 0.143 0.305 0.234 0.508 0.235h0.021c0.209-0.007 0.393-0.109 0.511-0.264l0.001-0.002 1.289-1.713c0.089-0.112 0.142-0.255 0.142-0.411 0-0.368-0.298-0.667-0.667-0.667-0.222 0-0.418 0.108-0.539 0.275l-0.001 0.002-0.789 1.048-8.903-10.452c-0.123-0.144-0.305-0.235-0.508-0.235-0.165 0-0.316 0.060-0.433 0.16l0.001-0.001z"></path>
</symbol><symbol id="icon-paperclip" viewBox="0 0 32 32">
<path fill="#f97316" d="M23.061 13.441c0 0 1.172-0.891 0.281-1.782-0.893-0.891-1.76 0.259-1.76 0.259l-6.969 6.97c0 0-2.103 2.711-3.696 1.070s1.070-3.696 1.070-3.696l9.759-9.76c0 0 2.744-3.023 5.322-0.445 2.578 2.579-0.453 5.329-0.453 5.329l-13.213 13.214c0 0-4.228 4.884-8.143 0.969s1.016-8.095 1.016-8.095l10.034-10.034c0 0 1.125-0.938 0.281-1.782s-1.781 0.281-1.781 0.281l-11.51 11.511c0 0-4.345 4.767 0.508 9.618 4.853 4.853 9.619 0.509 9.619 0.509l15.822-15.823c0 0 3.164-3.493-0.609-7.268s-7.268-0.609-7.268-0.609l-11.61 11.611c0 0-3.49 2.834-0.325 5.998s5.951-0.372 5.951-0.372l7.674-7.673z"></path>
</symbol><symbol id="icon-mic" viewBox="0 0 32 32">
<path fill="#f97316" d="M16.4 25.936v2.993c2.992 0.161 5.305 1.151 5.305 2.075 0 0.023-12.268 0.023-12.268 0 0-0.889 2.142-1.849 4.973-2.062v-3.018c-3.614-0.518-6.402-3.597-6.402-7.354v-1.555h0.995v1.555c0 3.57 2.894 6.465 6.464 6.466h0.004c3.57-0.001 6.464-2.896 6.464-6.466v-1.555h1.058v1.555c-0.001 3.801-2.917 6.903-6.593 7.366zM15.5 23.955c-3.035 0-5.494-2.459-5.494-5.494v-2.477h4.495v-0.999h-4.495v-0.999h4.495v-0.998h-4.495v-0.999h4.495v-0.999h-4.495v-0.999h4.495v-0.999h-4.495v-1.582c0-3.034 2.459-5.432 5.494-5.432 3.034 0 5.494 2.397 5.494 5.432v1.582h-4.496v0.999h4.496v0.999h-4.496v0.999h4.496v0.999h-4.496v0.998h4.496v0.999h-4.496v0.999h4.496v2.477c0 3.035-2.46 5.494-5.494 5.494z"></path>
</symbol><symbol id="icon-media-stop" viewBox="0 0 24 24">
<path d="M16 6h-8c-1.1 0-2 0.9-2 2v8c0 1.1 0.9 2 2 2h8c1.1 0 2-0.9 2-2v-8c0-1.1-0.9-2-2-2z"></path>
</symbol><symbol id="icon-play" viewBox="0 0 16 16">
<path fill="#f97316" d="M3 0v16l10-7.989-10-8.011z"></path>
</symbol><symbol id="icon-pause" viewBox="0 0 16 16">
<path fill="#f97316" d="M5.5 0h-3c-0.276 0-0.5 0.224-0.5 0.5v15c0 0.277 0.224 0.5 0.5 0.5h3c0.277 0 0.5-0.223 0.5-0.5v-15c0-0.276-0.223-0.5-0.5-0.5zM13.5 0h-3c-0.277 0-0.5 0.224-0.5 0.5v15c0 0.277 0.223 0.5 0.5 0.5h3c0.277 0 0.5-0.223 0.5-0.5v-15c0-0.276-0.223-0.5-0.5-0.5z"></path>
</symbol><symbol id="icon-users" viewBox="0 0 36 32">
<path d="M0.5 31.983c0.268 0.067 0.542-0.088 0.612-0.354 1.030-3.843 5.216-4.839 7.718-5.435 0.627-0.149 1.122-0.267 1.444-0.406 2.85-1.237 3.779-3.227 4.057-4.679 0.034-0.175-0.029-0.355-0.165-0.473-1.484-1.281-2.736-3.204-3.526-5.416-0.022-0.063-0.057-0.121-0.103-0.171-1.045-1.136-1.645-2.337-1.645-3.294 0-0.559 0.211-0.934 0.686-1.217 0.145-0.087 0.236-0.24 0.243-0.408 0.221-5.094 3.849-9.104 8.299-9.13 0.005 0 0.102 0.007 0.107 0.007 4.472 0.062 8.077 4.158 8.206 9.324 0.004 0.143 0.068 0.277 0.178 0.369 0.313 0.265 0.459 0.601 0.459 1.057 0 0.801-0.427 1.786-1.201 2.772-0.037 0.047-0.065 0.101-0.084 0.158-0.8 2.536-2.236 4.775-3.938 6.145-0.144 0.116-0.212 0.302-0.178 0.483 0.278 1.451 1.207 3.44 4.057 4.679 0.337 0.146 0.86 0.26 1.523 0.403 2.477 0.536 6.622 1.435 7.639 5.232 0.060 0.223 0.262 0.37 0.482 0.37 0.043 0 0.086-0.006 0.13-0.017 0.267-0.072 0.425-0.346 0.354-0.613-1.175-4.387-5.871-5.404-8.393-5.95-0.585-0.127-1.090-0.236-1.336-0.344-1.86-0.808-3.006-2.039-3.411-3.665 1.727-1.483 3.172-3.771 3.998-6.337 0.877-1.14 1.359-2.314 1.359-3.317 0-0.669-0.216-1.227-0.644-1.663-0.238-5.604-4.237-10.017-9.2-10.088l-0.149-0.002c-4.873 0.026-8.889 4.323-9.24 9.83-0.626 0.46-0.944 1.105-0.944 1.924 0 1.183 0.669 2.598 1.84 3.896 0.809 2.223 2.063 4.176 3.556 5.543-0.403 1.632-1.55 2.867-3.414 3.676-0.241 0.105-0.721 0.22-1.277 0.352-2.541 0.604-7.269 1.729-8.453 6.147-0.071 0.267 0.087 0.54 0.354 0.612z"></path>
</symbol><symbol id="icon-download" viewBox="0 0 16 16">
<path fill="#f97316" d="M8 9l4-4h-3v-4h-2v4h-3zM11.636 7.364l-1.121 1.121 4.064 1.515-6.579 2.453-6.579-2.453 4.064-1.515-1.121-1.121-4.364 1.636v4l8 3 8-3v-4z"></path>
</symbol><symbol id="icon-dots-horizontal-triple" viewBox="0 0 20 20">
<path fill="#f97316" d="M10 12c-1.105 0-2-0.895-2-2s0.895-2 2-2v0c1.105 0 2 0.895 2 2s-0.895 2-2 2v0zM10 6c-1.105 0-2-0.895-2-2s0.895-2 2-2v0c1.105 0 2 0.895 2 2s-0.895 2-2 2v0zM10 18c-1.105 0-2-0.895-2-2s0.895-2 2-2v0c1.105 0 2 0.895 2 2s-0.895 2-2 2v0z"></path>
</symbol><symbol id="icon-forward" viewBox="0 0 16 16">
<path  d="M4.096 0c-1.777 3.219-2.076 8.13 4.904 7.966v-3.966l6 6-6 6v-3.881c-8.359 0.218-9.29-7.378-4.904-12.119z"></path>
</symbol><symbol id="icon-trash" viewBox="0 0 20 20">
<path d="M6 2l2-2h4l2 2h4v2h-16v-2h4zM3 6h14l-1 14h-12l-1-14zM8 8v10h1v-10h-1zM11 8v10h1v-10h-1z"></path>
</symbol><symbol id="icon-picture" viewBox="0 0 32 32">
<path fill="#f97316" d="M1.5 32h29c0.827 0 1.5-0.673 1.5-1.5v-29c0-0.827-0.673-1.5-1.5-1.5h-29c-0.827 0-1.5 0.673-1.5 1.5v29c0 0.827 0.673 1.5 1.5 1.5zM1 1.5c0-0.276 0.225-0.5 0.5-0.5h29c0.275 0 0.5 0.224 0.5 0.5v29c0 0.276-0.225 0.5-0.5 0.5h-29c-0.275 0-0.5-0.224-0.5-0.5v-29zM20.5 12.5c1.103 0 2-0.897 2-2s-0.897-2-2-2-2 0.897-2 2 0.897 2 2 2zM20.5 9.5c0.552 0 1 0.449 1 1s-0.448 1-1 1-1-0.449-1-1 0.448-1 1-1zM4.5 25h23c0.276 0 0.5-0.224 0.5-0.5v-20c0-0.276-0.224-0.5-0.5-0.5h-23c-0.276 0-0.5 0.224-0.5 0.5v20c0 0.276 0.224 0.5 0.5 0.5zM5 24v-5.638c0.022-0.016 0.047-0.025 0.067-0.045l5.116-5.116c0.26-0.26 0.712-0.259 0.972 0l7.521 7.521c0.098 0.098 0.226 0.146 0.354 0.146 0.124 0 0.248-0.046 0.345-0.138l3.866-3.672c0.13-0.13 0.303-0.202 0.486-0.202 0.184 0 0.355 0.072 0.471 0.187l2.802 3.052c0 0 0.001 0 0.001 0.001v3.904h-22.001zM27 5v13.618l-2.081-2.266c-0.317-0.319-0.741-0.495-1.191-0.495-0.001 0-0.001 0-0.001 0-0.451 0-0.875 0.176-1.185 0.486l-3.504 3.328-7.176-7.177c-0.639-0.638-1.749-0.637-2.386 0l-4.476 4.477v-11.971h22z"></path>
</symbol><symbol id="icon-audio" viewBox="0 0 24 24">
<path fill="#f97316" d="M17.016 6h4.969v2.016h-3v9q0 1.219-0.891 2.109t-2.109 0.891-2.109-0.891-0.891-2.109 0.891-2.109 2.109-0.891q0.375 0 1.031 0.188v-8.203zM3 15.984v-1.969h8.016v1.969h-8.016zM15 9.984v2.016h-12v-2.016h12zM15 6v2.016h-12v-2.016h12z"></path>
</symbol><symbol id="icon-smile" viewBox="0 0 24 24">
<path d="M12 17.484q-1.734 0-3.117-0.961t-1.992-2.508h10.219q-0.609 1.547-1.992 2.508t-3.117 0.961zM8.484 11.016q-0.609 0-1.055-0.445t-0.445-1.055 0.445-1.055 1.055-0.445 1.055 0.445 0.445 1.055-0.445 1.055-1.055 0.445zM15.516 11.016q-0.609 0-1.055-0.445t-0.445-1.055 0.445-1.055 1.055-0.445 1.055 0.445 0.445 1.055-0.445 1.055-1.055 0.445zM12 20.016q3.281 0 5.648-2.367t2.367-5.648-2.367-5.648-5.648-2.367-5.648 2.367-2.367 5.648 2.367 5.648 5.648 2.367zM12 2.016q4.125 0 7.055 2.93t2.93 7.055-2.93 7.055-7.055 2.93-7.055-2.93-2.93-7.055 2.93-7.055 7.055-2.93z"></path>
</symbol><symbol id="icon-video-play" viewBox="0 0 32 32">
<path d="M16 0c-8.836 0-16 7.164-16 16s7.164 16 16 16 16-7.164 16-16-7.164-16-16-16zM10 24v-16l16.008 8-16.008 8z"></path>
</symbol><symbol id="icon-pencil" viewBox="0 0 32 32">
<path d="M0 31.479c0 0.276 0.224 0.5 0.5 0.5h31.111c0.067 0 0.132-0.013 0.193-0.039s0.116-0.063 0.162-0.109c0.001-0.001 0.002-0.001 0.003-0.002 0.003-0.003 0.003-0.009 0.007-0.012 0.051-0.055 0.084-0.122 0.107-0.195 0.007-0.023 0.010-0.045 0.014-0.069 0.004-0.025 0.015-0.047 0.015-0.073 0-0.040-0.014-0.075-0.023-0.112-0.003-0.014 0.003-0.028-0.002-0.042l-3.16-9.715c-0.024-0.075-0.066-0.144-0.122-0.199l-17.117-17.118c-0.018-0.028-0.031-0.058-0.055-0.083l-3.739-3.739c-0.607-0.607-1.595-0.607-2.203 0l-5.235 5.235c-0.294 0.294-0.456 0.685-0.456 1.101s0.162 0.808 0.456 1.102l3.656 3.656c0.018 0.027 0.030 0.058 0.054 0.082l17.090 17.205c0.059 0.060 0.131 0.103 0.212 0.127l6.713 2h-27.681c-0.276-0.001-0.5 0.223-0.5 0.499zM6.362 10.161l15.687 15.486-0.577 2.002-16.245-16.353 1.135-1.135zM22.816 25l-15.748-15.545 2.437-2.437 15.607 15.648v2.334h-2.296zM25.735 21.875l-15.523-15.564 1.039-1.039 16.211 16.211-1.727 0.392zM22.988 26h2.624c0.276 0 0.5-0.224 0.5-0.5v-2.685l2.007-0.456 2.723 8.37-8.488-2.529 0.634-2.2zM1 6.808c0-0.149 0.058-0.288 0.163-0.394l5.235-5.235c0.217-0.217 0.57-0.218 0.789 0l3.372 3.372-6.023 6.023-3.372-3.372c-0.106-0.105-0.164-0.245-0.164-0.394z"></path>
</symbol><symbol id="icon-group_add" viewBox="0 0 24 24">
<path d="M12.984 12.984q1.875 0 3.938 0.82t2.063 2.18v2.016h-12v-2.016q0-1.359 2.063-2.18t3.938-0.82zM19.641 13.172q1.734 0.281 3.047 1.008t1.313 1.805v2.016h-3v-2.016q0-1.594-1.359-2.813zM12.984 11.016q-1.219 0-2.109-0.891t-0.891-2.109 0.891-2.109 2.109-0.891 2.109 0.891 0.891 2.109-0.891 2.109-2.109 0.891zM18 11.016q-0.469 0-0.891-0.141 0.891-1.266 0.891-2.859t-0.891-2.859q0.422-0.141 0.891-0.141 1.219 0 2.109 0.891t0.891 2.109-0.891 2.109-2.109 0.891zM8.016 9.984v2.016h-3v3h-2.016v-3h-3v-2.016h3v-3h2.016v3h3z"></path>
</symbol>
<symbol id="icon-info" viewBox="0 0 32 32">
<path d="M17 22v-7h-3v1h2v6h-2v1h5v-1h-2zM16.5 29v0 0c-6.904 0-12.5-5.596-12.5-12.5s5.596-12.5 12.5-12.5c6.904 0 12.5 5.596 12.5 12.5s-5.596 12.5-12.5 12.5zM16.5 28c6.351 0 11.5-5.149 11.5-11.5s-5.149-11.5-11.5-11.5c-6.351 0-11.5 5.149-11.5 11.5s5.149 11.5 11.5 11.5v0 0zM16.5 13c0.828 0 1.5-0.672 1.5-1.5s-0.672-1.5-1.5-1.5c-0.828 0-1.5 0.672-1.5 1.5s0.672 1.5 1.5 1.5v0 0z"></path>
</symbol><symbol id="icon-remove" viewBox="0 0 24 24">
<path d="M12 20.016q3.281 0 5.648-2.367t2.367-5.648-2.367-5.648-5.648-2.367-5.648 2.367-2.367 5.648 2.367 5.648 5.648 2.367zM12 2.016q4.125 0 7.055 2.93t2.93 7.055-2.93 7.055-7.055 2.93-7.055-2.93-2.93-7.055 2.93-7.055 7.055-2.93zM6.984 11.016h10.031v1.969h-10.031v-1.969z"></path>
</symbol><symbol id="icon-location" viewBox="0 0 32 32">
<path d="M15.938 32c0 0-9.938-14.062-9.938-20.062 0-11.813 9.938-11.938 9.938-11.938s10.062 0.125 10.062 11.875c0 6.187-10.062 20.125-10.062 20.125zM16 6c-2.209 0-4 1.791-4 4s1.791 4 4 4 4-1.791 4-4-1.791-4-4-4z"></path>
</symbol><symbol id="icon-location_off" viewBox="0 0 24 24">
<path d="M11.719 11.484q5.109 5.063 8.297 8.25l-1.266 1.266-3.375-3.328q-0.75 1.125-1.594 2.203t-1.313 1.594l-0.469 0.516q-0.281-0.328-0.75-0.867t-1.688-2.156-2.133-3.141-1.664-3.445-0.75-3.375q0-0.516 0.188-1.547l-3.188-3.188 1.266-1.266 8.344 8.344zM12 6.516q-1.078 0-1.828 0.844l-3.234-3.188q0.844-0.891 2.344-1.523t2.719-0.633q2.906 0 4.945 2.039t2.039 4.945q0 2.25-1.688 5.484l-3.609-3.656q0.797-0.703 0.797-1.828 0-1.031-0.727-1.758t-1.758-0.727z"></path>
</symbol><symbol id="icon-connected" viewBox="0 0 24 24">
<path d="M5.64 13.318c1.962-1.634 4.361-2.389 6.733-2.305 2.167 0.077 4.31 0.855 6.071 2.308 0.426 0.351 1.056 0.291 1.408-0.135s0.291-1.056-0.135-1.408c-2.107-1.738-4.674-2.671-7.272-2.763-2.846-0.101-5.731 0.806-8.084 2.767-0.424 0.353-0.482 0.984-0.128 1.408s0.984 0.482 1.408 0.128zM2.081 9.75c2.937-2.589 6.6-3.82 10.236-3.737 3.443 0.079 6.859 1.337 9.604 3.739 0.416 0.364 1.047 0.322 1.411-0.094s0.322-1.047-0.094-1.411c-3.108-2.72-6.977-4.145-10.876-4.234-4.119-0.094-8.275 1.303-11.603 4.237-0.415 0.365-0.454 0.997-0.089 1.411s0.997 0.454 1.411 0.089zM9.109 16.925c0.99-0.704 2.146-0.995 3.274-0.906 0.891 0.070 1.765 0.378 2.523 0.909 0.452 0.317 1.076 0.207 1.393-0.245s0.207-1.076-0.245-1.393c-1.053-0.738-2.269-1.167-3.513-1.265-1.58-0.125-3.204 0.285-4.59 1.269-0.45 0.32-0.556 0.944-0.236 1.394s0.944 0.556 1.394 0.236zM12 21c0.552 0 1-0.448 1-1s-0.448-1-1-1-1 0.448-1 1 0.448 1 1 1z"></path>
</symbol><symbol id="icon-disconnected" viewBox="0 0 24 24">
<path d="M16.281 11.959c0.789 0.385 1.498 0.857 2.064 1.347 0.418 0.361 1.049 0.316 1.411-0.102s0.316-1.049-0.102-1.411c-0.703-0.609-1.559-1.175-2.496-1.633-0.496-0.242-1.095-0.036-1.337 0.46s-0.036 1.095 0.46 1.337zM10.79 6.047c4.020-0.324 7.796 0.968 10.696 3.337 0.146 0.12 0.29 0.242 0.432 0.367 0.414 0.365 1.046 0.325 1.411-0.089s0.325-1.046-0.089-1.411c-0.16-0.141-0.324-0.28-0.489-0.415-3.284-2.683-7.566-4.149-12.122-3.781-0.55 0.043-0.96 0.525-0.916 1.075s0.527 0.961 1.077 0.916zM9.109 16.925c0.99-0.704 2.146-0.995 3.274-0.906 0.891 0.070 1.765 0.378 2.523 0.909 0.233 0.163 0.512 0.213 0.77 0.162l6.617 6.617c0.391 0.391 1.024 0.391 1.414 0s0.391-1.024 0-1.414l-12.75-12.75c-0.050-0.063-0.106-0.12-0.169-0.169l-9.081-9.081c-0.391-0.391-1.024-0.391-1.414 0s-0.391 1.024 0 1.414l4.088 4.088c-1.257 0.629-2.49 1.453-3.623 2.455-0.414 0.366-0.453 0.998-0.087 1.412s0.998 0.453 1.412 0.087c1.191-1.053 2.499-1.877 3.802-2.451l2.323 2.323c-1.358 0.457-2.671 1.177-3.849 2.161-0.424 0.354-0.48 0.985-0.126 1.409s0.985 0.48 1.409 0.126c1.27-1.062 2.724-1.75 4.188-2.074l2.789 2.789c-0.026-0.002-0.052-0.005-0.078-0.007-1.58-0.125-3.204 0.285-4.59 1.269-0.45 0.32-0.556 0.944-0.236 1.394s0.944 0.556 1.394 0.236zM12 21c0.552 0 1-0.448 1-1s-0.448-1-1-1-1 0.448-1 1 0.448 1 1 1z"></path>
</symbol><symbol id="icon-copy" viewBox="0 0 24 24">
<path d="M14.016 12h5.484l-5.484-5.484v5.484zM15 5.016l6 6v9.984q0 0.797-0.609 1.406t-1.406 0.609h-11.016q-0.797 0-1.383-0.609t-0.586-1.406v-14.016q0-0.797 0.609-1.383t1.406-0.586h6.984zM15.984 0.984v2.016h-12v14.016h-1.969v-14.016q0-0.797 0.586-1.406t1.383-0.609h12z"></path>
</symbol><symbol id="icon-pin" viewBox="0 0 20 20">
<path d="M4.774 15.287l-2.105 3.25 0.224 1.063 1.060-0.227 2.104-3.248c-0.224-0.12-0.446-0.248-0.661-0.39-0.218-0.141-0.426-0.292-0.622-0.448zM13.686 14.152c0.014-0.029 0.023-0.061 0.036-0.092 0.053-0.117 0.1-0.234 0.138-0.357 0.006-0.022 0.009-0.044 0.016-0.064 0.039-0.136 0.072-0.27 0.098-0.408 0-0.007 0-0.012 0-0.021 0.195-1.169-0.145-2.473-0.923-3.651l1.11-1.714c1.279 0.163 2.385-0.159 2.917-0.982 0.923-1.423-0.2-3.792-2.505-5.293-2.307-1.502-4.923-1.565-5.844-0.144-0.534 0.824-0.378 1.967 0.293 3.073l-1.112 1.714c-1.389-0.233-2.716-0.016-3.703 0.64-0.006 0.002-0.013 0.004-0.017 0.008-0.115 0.078-0.227 0.164-0.332 0.254-0.017 0.014-0.037 0.027-0.051 0.041-0.098 0.084-0.186 0.178-0.271 0.272-0.020 0.024-0.048 0.045-0.067 0.070-0.106 0.121-0.204 0.249-0.29 0.385-1.384 2.133-0.203 5.361 2.633 7.209 2.838 1.848 6.26 1.614 7.641-0.519 0.087-0.135 0.167-0.276 0.233-0.421zM12.871 4.194c-0.887-0.577-1.32-1.487-0.965-2.036 0.354-0.547 1.361-0.522 2.246 0.055 0.889 0.577 1.318 1.489 0.965 2.036s-1.358 0.522-2.246-0.055z"></path>
</symbol>

</defs></svg>