<svg xmlns="http://www.w3.org/2000/svg" width="72" height="72" fill="none"><g filter="url(#a)"><path fill="url(#b)" d="m23.99 53.458.804.476A21.974 21.974 0 0 0 35.992 57H36c12.126 0 21.995-9.866 22-21.992.005-12.15-9.841-22.003-21.991-22.008C23.873 13 14.005 22.865 14 34.99a21.933 21.933 0 0 0 3.363 11.704l.524.832-2.223 8.115 8.327-2.183Z" shape-rendering="crispEdges"/></g><g filter="url(#c)"><path fill="url(#d)" d="M30.378 25.866c-.39-.824-.8-.84-1.171-.854-.303-.013-.65-.012-.997-.012a1.954 1.954 0 0 0-1.388.619c-.477.495-1.822 1.69-1.822 4.124 0 2.433 1.865 4.784 2.125 5.115.26.33 3.6 5.482 8.89 7.465 4.395 1.647 5.29 1.32 6.244 1.237.954-.083 3.078-1.196 3.512-2.351.434-1.155.434-2.145.304-2.351-.13-.207-.477-.33-.998-.577-.52-.248-3.078-1.444-3.555-1.609-.478-.165-.825-.247-1.172.248-.346.495-1.343 1.608-1.647 1.938-.304.33-.607.372-1.128.124-.52-.247-2.197-.77-4.184-2.454-1.547-1.31-2.592-2.93-2.895-3.425-.304-.495-.033-.762.228-1.009.234-.221.52-.577.78-.866.26-.289.347-.495.52-.825.174-.33.087-.618-.043-.866-.13-.247-1.14-2.693-1.603-3.671Z"/></g><defs><linearGradient id="b" x1="58" x2="58" y1="57" y2="13" gradientUnits="userSpaceOnUse"><stop offset=".004" stop-color="#ABE349"/><stop offset="1" stop-color="#EAF4FD"/><stop offset="1" stop-color="#37A144" stop-opacity=".581"/><stop offset="1" stop-color="#D4EC8C"/></linearGradient><linearGradient id="d" x1="46.151" x2="46.151" y1="43.642" y2="25" gradientUnits="userSpaceOnUse"><stop stop-color="#FFC156"/><stop offset="1" stop-color="#fff"/></linearGradient><filter id="a" width="72" height="72" x="0" y="0" color-interpolation-filters="sRGB" filterUnits="userSpaceOnUse"><feFlood flood-opacity="0" result="BackgroundImageFix"/><feGaussianBlur in="BackgroundImageFix" stdDeviation="2"/><feComposite in2="SourceAlpha" operator="in" result="effect1_backgroundBlur_8_2"/><feColorMatrix in="SourceAlpha" result="hardAlpha" values="0 0 0 0 0 0 0 0 0 0 0 0 0 0 0 0 0 0 127 0"/><feOffset dy="1"/><feGaussianBlur stdDeviation=".5"/><feComposite in2="hardAlpha" operator="out"/><feColorMatrix values="0 0 0 0 0.641195 0 0 0 0 1 0 0 0 0 0.61 0 0 0 1 0"/><feBlend in2="effect1_backgroundBlur_8_2" result="effect2_dropShadow_8_2"/><feColorMatrix in="SourceAlpha" result="hardAlpha" values="0 0 0 0 0 0 0 0 0 0 0 0 0 0 0 0 0 0 127 0"/><feOffset dx="-1" dy="-1"/><feGaussianBlur stdDeviation=".5"/><feComposite in2="hardAlpha" operator="out"/><feColorMatrix values="0 0 0 0 0.996667 0 0 0 0 0.9867 0 0 0 0 0.9867 0 0 0 1 0"/><feBlend in2="effect2_dropShadow_8_2" result="effect3_dropShadow_8_2"/><feColorMatrix in="SourceAlpha" result="hardAlpha" values="0 0 0 0 0 0 0 0 0 0 0 0 0 0 0 0 0 0 127 0"/><feOffset dx=".2" dy="-.2"/><feGaussianBlur stdDeviation=".1"/><feComposite in2="hardAlpha" operator="out"/><feColorMatrix values="0 0 0 0 0 0 0 0 0 0 0 0 0 0 0 0 0 0 0.74 0"/><feBlend in2="effect3_dropShadow_8_2" result="effect4_dropShadow_8_2"/><feColorMatrix in="SourceAlpha" result="hardAlpha" values="0 0 0 0 0 0 0 0 0 0 0 0 0 0 0 0 0 0 127 0"/><feOffset dy="1"/><feGaussianBlur stdDeviation="7"/><feComposite in2="hardAlpha" operator="out"/><feColorMatrix values="0 0 0 0 0.988333 0 0 0 0 0.97845 0 0 0 0 0.97845 0 0 0 1 0"/><feBlend in2="effect4_dropShadow_8_2" result="effect5_dropShadow_8_2"/><feColorMatrix in="SourceAlpha" result="hardAlpha" values="0 0 0 0 0 0 0 0 0 0 0 0 0 0 0 0 0 0 127 0"/><feOffset dy="4"/><feGaussianBlur stdDeviation="2"/><feComposite in2="hardAlpha" operator="out"/><feColorMatrix values="0 0 0 0 0 0 0 0 0 0 0 0 0 0 0 0 0 0 0.25 0"/><feBlend in2="effect5_dropShadow_8_2" result="effect6_dropShadow_8_2"/><feBlend in="SourceGraphic" in2="effect6_dropShadow_8_2" result="shape"/><feColorMatrix in="SourceAlpha" result="hardAlpha" values="0 0 0 0 0 0 0 0 0 0 0 0 0 0 0 0 0 0 127 0"/><feOffset dx="1"/><feGaussianBlur stdDeviation=".5"/><feComposite in2="hardAlpha" k2="-1" k3="1" operator="arithmetic"/><feColorMatrix values="0 0 0 0 0.998333 0 0 0 0 1 0 0 0 0 0.993333 0 0 0 1 0"/><feBlend in2="shape" result="effect7_innerShadow_8_2"/><feColorMatrix in="SourceAlpha" result="hardAlpha" values="0 0 0 0 0 0 0 0 0 0 0 0 0 0 0 0 0 0 127 0"/><feOffset dy="1"/><feGaussianBlur stdDeviation=".5"/><feComposite in2="hardAlpha" k2="-1" k3="1" operator="arithmetic"/><feColorMatrix values="0 0 0 0 0.998333 0 0 0 0 0.998333 0 0 0 0 0.998333 0 0 0 1 0"/><feBlend in2="effect7_innerShadow_8_2" result="effect8_innerShadow_8_2"/><feColorMatrix in="SourceAlpha" result="hardAlpha" values="0 0 0 0 0 0 0 0 0 0 0 0 0 0 0 0 0 0 127 0"/><feOffset dy="1"/><feGaussianBlur stdDeviation="1"/><feComposite in2="hardAlpha" k2="-1" k3="1" operator="arithmetic"/><feColorMatrix values="0 0 0 0 0.00504953 0 0 0 0 0.504948 0 0 0 0 0.0883659 0 0 0 0.71 0"/><feBlend in2="effect8_innerShadow_8_2" result="effect9_innerShadow_8_2"/><feColorMatrix in="SourceAlpha" result="hardAlpha" values="0 0 0 0 0 0 0 0 0 0 0 0 0 0 0 0 0 0 127 0"/><feOffset dx="-.5"/><feGaussianBlur stdDeviation="4"/><feComposite in2="hardAlpha" k2="-1" k3="1" operator="arithmetic"/><feColorMatrix values="0 0 0 0 0.00504953 0 0 0 0 0.504948 0 0 0 0 0.0883659 0 0 0 0.31 0"/><feBlend in2="effect9_innerShadow_8_2" result="effect10_innerShadow_8_2"/></filter><filter id="c" width="41.151" height="38.642" x="17" y="14.5" color-interpolation-filters="sRGB" filterUnits="userSpaceOnUse"><feFlood flood-opacity="0" result="BackgroundImageFix"/><feGaussianBlur in="BackgroundImageFix" stdDeviation="2"/><feComposite in2="SourceAlpha" operator="in" result="effect1_backgroundBlur_8_2"/><feColorMatrix in="SourceAlpha" result="hardAlpha" values="0 0 0 0 0 0 0 0 0 0 0 0 0 0 0 0 0 0 127 0"/><feOffset dx="2" dy="-.5"/><feGaussianBlur stdDeviation="5"/><feComposite in2="hardAlpha" operator="out"/><feColorMatrix values="0 0 0 0 1 0 0 0 0 1 0 0 0 0 1 0 0 0 1 0"/><feBlend in2="effect1_backgroundBlur_8_2" result="effect2_dropShadow_8_2"/><feColorMatrix in="SourceAlpha" result="hardAlpha" values="0 0 0 0 0 0 0 0 0 0 0 0 0 0 0 0 0 0 127 0"/><feOffset dy="-.2"/><feGaussianBlur stdDeviation=".1"/><feComposite in2="hardAlpha" operator="out"/><feColorMatrix values="0 0 0 0 0 0 0 0 0 0 0 0 0 0 0 0 0 0 0.1 0"/><feBlend in2="effect2_dropShadow_8_2" result="effect3_dropShadow_8_2"/><feColorMatrix in="SourceAlpha" result="hardAlpha" values="0 0 0 0 0 0 0 0 0 0 0 0 0 0 0 0 0 0 127 0"/><feOffset dy="2"/><feGaussianBlur stdDeviation="2"/><feComposite in2="hardAlpha" operator="out"/><feColorMatrix values="0 0 0 0 0.00504953 0 0 0 0 0.504948 0 0 0 0 0.0883659 0 0 0 0.73 0"/><feBlend in2="effect3_dropShadow_8_2" result="effect4_dropShadow_8_2"/><feBlend in="SourceGraphic" in2="effect4_dropShadow_8_2" result="shape"/><feColorMatrix in="SourceAlpha" result="hardAlpha" values="0 0 0 0 0 0 0 0 0 0 0 0 0 0 0 0 0 0 127 0"/><feOffset dy="4"/><feGaussianBlur stdDeviation="2"/><feComposite in2="hardAlpha" k2="-1" k3="1" operator="arithmetic"/><feColorMatrix values="0 0 0 0 0.995 0 0 0 0 0.995 0 0 0 0 0.995 0 0 0 1 0"/><feBlend in2="shape" result="effect5_innerShadow_8_2"/></filter></defs></svg>