<svg xmlns="http://www.w3.org/2000/svg" width="72" height="67" fill="none"><g filter="url(#a)"><rect width="64" height="57" x="4" y="2" fill="#fff" fill-opacity=".33" rx="12" shape-rendering="crispEdges"/></g><g filter="url(#b)"><path fill="url(#c)" d="m23.99 48.458.804.476A21.974 21.974 0 0 0 35.992 52H36c12.126 0 21.995-9.866 22-21.992C58.005 17.858 48.159 8.005 36.009 8 23.873 8 14.005 17.865 14 29.99a21.933 21.933 0 0 0 3.363 11.704l.524.832-2.223 8.115 8.327-2.183Z"/></g><g filter="url(#d)"><path fill="url(#e)" d="M30.378 20.866c-.39-.824-.8-.84-1.171-.854-.303-.013-.65-.012-.997-.012a1.954 1.954 0 0 0-1.388.619c-.477.495-1.822 1.69-1.822 4.124 0 2.433 1.865 4.784 2.125 5.115.26.33 3.6 5.482 8.89 7.465 4.395 1.647 5.29 1.32 6.244 1.237.954-.083 3.078-1.196 3.512-2.351.434-1.155.434-2.145.304-2.351-.13-.207-.477-.33-.998-.577-.52-.248-3.078-1.444-3.555-1.609-.478-.165-.825-.247-1.172.248-.346.495-1.343 1.608-1.647 1.938-.304.33-.607.372-1.128.124-.52-.247-2.197-.77-4.184-2.454-1.547-1.31-2.592-2.93-2.895-3.425-.304-.495-.033-.762.228-1.009.234-.221.52-.577.78-.866.26-.289.347-.495.52-.825.174-.33.087-.618-.043-.866-.13-.247-1.14-2.693-1.603-3.671Z" shape-rendering="crispEdges"/></g><defs><filter id="a" width="85.746" height="78.746" x="-6.873" y="-8.873" color-interpolation-filters="sRGB" filterUnits="userSpaceOnUse"><feFlood flood-opacity="0" result="BackgroundImageFix"/><feGaussianBlur in="BackgroundImageFix" stdDeviation="5.437"/><feComposite in2="SourceAlpha" operator="in" result="effect1_backgroundBlur_3_68"/><feColorMatrix in="SourceAlpha" result="hardAlpha" values="0 0 0 0 0 0 0 0 0 0 0 0 0 0 0 0 0 0 127 0"/><feOffset dy="2"/><feGaussianBlur stdDeviation="2"/><feColorMatrix values="0 0 0 0 0 0 0 0 0 0 0 0 0 0 0 0 0 0 0.12 0"/><feBlend in2="effect1_backgroundBlur_3_68" result="effect2_dropShadow_3_68"/><feColorMatrix in="SourceAlpha" result="hardAlpha" values="0 0 0 0 0 0 0 0 0 0 0 0 0 0 0 0 0 0 127 0"/><feOffset dy="4"/><feGaussianBlur stdDeviation="2"/><feComposite in2="hardAlpha" operator="out"/><feColorMatrix values="0 0 0 0 0 0 0 0 0 0 0 0 0 0 0 0 0 0 0.25 0"/><feBlend in2="effect2_dropShadow_3_68" result="effect3_dropShadow_3_68"/><feBlend in="SourceGraphic" in2="effect3_dropShadow_3_68" result="shape"/><feColorMatrix in="SourceAlpha" result="hardAlpha" values="0 0 0 0 0 0 0 0 0 0 0 0 0 0 0 0 0 0 127 0"/><feOffset dx="-4" dy="-4"/><feGaussianBlur stdDeviation="12"/><feComposite in2="hardAlpha" k2="-1" k3="1" operator="arithmetic"/><feColorMatrix values="0 0 0 0 1 0 0 0 0 1 0 0 0 0 1 0 0 0 0.04 0"/><feBlend in2="shape" result="effect4_innerShadow_3_68"/></filter><filter id="b" width="44" height="48" x="14" y="8" color-interpolation-filters="sRGB" filterUnits="userSpaceOnUse"><feFlood flood-opacity="0" result="BackgroundImageFix"/><feBlend in="SourceGraphic" in2="BackgroundImageFix" result="shape"/><feColorMatrix in="SourceAlpha" result="hardAlpha" values="0 0 0 0 0 0 0 0 0 0 0 0 0 0 0 0 0 0 127 0"/><feOffset dy="4"/><feGaussianBlur stdDeviation="2"/><feComposite in2="hardAlpha" k2="-1" k3="1" operator="arithmetic"/><feColorMatrix values="0 0 0 0 0 0 0 0 0 0 0 0 0 0 0 0 0 0 0.25 0"/><feBlend in2="shape" result="effect1_innerShadow_3_68"/><feColorMatrix in="SourceAlpha" result="hardAlpha" values="0 0 0 0 0 0 0 0 0 0 0 0 0 0 0 0 0 0 127 0"/><feOffset dy="1"/><feGaussianBlur stdDeviation="4"/><feComposite in2="hardAlpha" k2="-1" k3="1" operator="arithmetic"/><feColorMatrix values="0 0 0 0 0 0 0 0 0 0 0 0 0 0 0 0 0 0 0.25 0"/><feBlend in2="effect1_innerShadow_3_68" result="effect2_innerShadow_3_68"/></filter><filter id="d" width="29.151" height="30.642" x="21" y="16" color-interpolation-filters="sRGB" filterUnits="userSpaceOnUse"><feFlood flood-opacity="0" result="BackgroundImageFix"/><feGaussianBlur in="BackgroundImageFix" stdDeviation="2"/><feComposite in2="SourceAlpha" operator="in" result="effect1_backgroundBlur_3_68"/><feColorMatrix in="SourceAlpha" result="hardAlpha" values="0 0 0 0 0 0 0 0 0 0 0 0 0 0 0 0 0 0 127 0"/><feOffset dy="4"/><feGaussianBlur stdDeviation="2"/><feComposite in2="hardAlpha" operator="out"/><feColorMatrix values="0 0 0 0 0.00504953 0 0 0 0 0.504948 0 0 0 0 0.0883659 0 0 0 1 0"/><feBlend in2="effect1_backgroundBlur_3_68" result="effect2_dropShadow_3_68"/><feColorMatrix in="SourceAlpha" result="hardAlpha" values="0 0 0 0 0 0 0 0 0 0 0 0 0 0 0 0 0 0 127 0"/><feOffset dy="4"/><feGaussianBlur stdDeviation="2"/><feComposite in2="hardAlpha" operator="out"/><feColorMatrix values="0 0 0 0 0 0 0 0 0 0 0 0 0 0 0 0 0 0 0.25 0"/><feBlend in2="effect2_dropShadow_3_68" result="effect3_dropShadow_3_68"/><feColorMatrix in="SourceAlpha" result="hardAlpha" values="0 0 0 0 0 0 0 0 0 0 0 0 0 0 0 0 0 0 127 0"/><feOffset dy="4"/><feGaussianBlur stdDeviation="2"/><feComposite in2="hardAlpha" operator="out"/><feColorMatrix values="0 0 0 0 0 0 0 0 0 0 0 0 0 0 0 0 0 0 0.25 0"/><feBlend in2="effect3_dropShadow_3_68" result="effect4_dropShadow_3_68"/><feBlend in="SourceGraphic" in2="effect4_dropShadow_3_68" result="shape"/></filter><linearGradient id="c" x1="58" x2="58" y1="52" y2="8" gradientUnits="userSpaceOnUse"><stop stop-color="#ABE349"/><stop offset="1" stop-color="#DFF893"/></linearGradient><linearGradient id="e" x1="46.151" x2="46.151" y1="38.642" y2="20" gradientUnits="userSpaceOnUse"><stop stop-color="#fff" stop-opacity=".79"/><stop offset="1" stop-color="#fff" stop-opacity=".79"/></linearGradient></defs></svg>