<svg xmlns="http://www.w3.org/2000/svg" width="44" height="44" fill="none"><g filter="url(#a)"><path fill="url(#b)" d="m9.99 40.458.804.476A21.974 21.974 0 0 0 21.992 44H22c12.126 0 21.995-9.866 22-21.992C44.005 9.858 34.159.005 22.009 0 9.873 0 .005 9.865 0 21.99a21.933 21.933 0 0 0 3.363 11.704l.524.832-2.223 8.115 8.327-2.183Z"/></g><g filter="url(#c)"><path fill="url(#d)" d="M16.378 12.866c-.39-.824-.8-.84-1.171-.854-.304-.013-.65-.012-.997-.012a1.954 1.954 0 0 0-1.388.619c-.477.495-1.822 1.69-1.822 4.124 0 2.433 1.865 4.784 2.125 5.115.26.33 3.6 5.482 8.89 7.465 4.395 1.647 5.29 1.32 6.244 1.237.954-.082 3.078-1.196 3.512-2.351.434-1.155.434-2.145.304-2.351-.13-.207-.477-.33-.998-.577-.52-.247-3.078-1.444-3.556-1.609-.477-.165-.823-.247-1.17.248-.348.495-1.344 1.608-1.648 1.938-.304.33-.607.372-1.128.124-.52-.247-2.197-.77-4.184-2.454-1.547-1.31-2.592-2.93-2.895-3.425-.304-.495-.033-.762.228-1.009.234-.221.52-.577.78-.866.26-.289.347-.495.52-.825.174-.33.087-.618-.043-.866-.13-.247-1.14-2.693-1.603-3.671Z"/></g><defs><linearGradient id="b" x1="44" x2="44" y1="44" y2="0" gradientUnits="userSpaceOnUse"><stop stop-color="#055F14"/><stop offset="1" stop-color="#60D66A"/></linearGradient><linearGradient id="d" x1="32.151" x2="32.151" y1="30.642" y2="12" gradientUnits="userSpaceOnUse"><stop stop-color="#FFC156"/><stop offset="1" stop-color="#60D66A"/></linearGradient><filter id="a" width="52" height="52" x="-4" y="-4" color-interpolation-filters="sRGB" filterUnits="userSpaceOnUse"><feFlood flood-opacity="0" result="BackgroundImageFix"/><feGaussianBlur in="BackgroundImageFix" stdDeviation="2"/><feComposite in2="SourceAlpha" operator="in" result="effect1_backgroundBlur_3_68"/><feBlend in="SourceGraphic" in2="effect1_backgroundBlur_3_68" result="shape"/><feColorMatrix in="SourceAlpha" result="hardAlpha" values="0 0 0 0 0 0 0 0 0 0 0 0 0 0 0 0 0 0 127 0"/><feOffset dy="4"/><feGaussianBlur stdDeviation="2"/><feComposite in2="hardAlpha" k2="-1" k3="1" operator="arithmetic"/><feColorMatrix values="0 0 0 0 0 0 0 0 0 0 0 0 0 0 0 0 0 0 0.25 0"/><feBlend in2="shape" result="effect2_innerShadow_3_68"/></filter><filter id="c" width="29.151" height="30.642" x="7" y="8" color-interpolation-filters="sRGB" filterUnits="userSpaceOnUse"><feFlood flood-opacity="0" result="BackgroundImageFix"/><feGaussianBlur in="BackgroundImageFix" stdDeviation="2"/><feComposite in2="SourceAlpha" operator="in" result="effect1_backgroundBlur_3_68"/><feColorMatrix in="SourceAlpha" result="hardAlpha" values="0 0 0 0 0 0 0 0 0 0 0 0 0 0 0 0 0 0 127 0"/><feOffset dy="4"/><feGaussianBlur stdDeviation="2"/><feComposite in2="hardAlpha" operator="out"/><feColorMatrix values="0 0 0 0 0.00504953 0 0 0 0 0.504948 0 0 0 0 0.0883659 0 0 0 1 0"/><feBlend in2="effect1_backgroundBlur_3_68" result="effect2_dropShadow_3_68"/><feColorMatrix in="SourceAlpha" result="hardAlpha" values="0 0 0 0 0 0 0 0 0 0 0 0 0 0 0 0 0 0 127 0"/><feOffset dy="4"/><feGaussianBlur stdDeviation="2"/><feComposite in2="hardAlpha" operator="out"/><feColorMatrix values="0 0 0 0 0 0 0 0 0 0 0 0 0 0 0 0 0 0 0.25 0"/><feBlend in2="effect2_dropShadow_3_68" result="effect3_dropShadow_3_68"/><feColorMatrix in="SourceAlpha" result="hardAlpha" values="0 0 0 0 0 0 0 0 0 0 0 0 0 0 0 0 0 0 127 0"/><feOffset dy="4"/><feGaussianBlur stdDeviation="2"/><feComposite in2="hardAlpha" operator="out"/><feColorMatrix values="0 0 0 0 0 0 0 0 0 0 0 0 0 0 0 0 0 0 0.25 0"/><feBlend in2="effect3_dropShadow_3_68" result="effect4_dropShadow_3_68"/><feBlend in="SourceGraphic" in2="effect4_dropShadow_3_68" result="shape"/></filter></defs></svg>